<svg width="325" height="53" viewBox="0 0 325 53" fill="none" xmlns="http://www.w3.org/2000/svg">
<path d="M21.6069 14.0057C26.012 14.0057 29.5581 15.3051 32.2452 17.904C34.9764 20.5028 36.3419 24.3578 36.3419 29.4689V49.4802H26.034V31.0283C26.034 28.2561 25.4173 26.1987 24.1839 24.8559C22.9505 23.4699 21.1664 22.7768 18.8317 22.7768C16.2327 22.7768 14.1623 23.5782 12.6206 25.1808C11.0788 26.7401 10.3079 29.0791 10.3079 32.1977V49.4802H0V14.5254H9.84536V18.6186C11.2109 17.146 12.9069 16.0198 14.9332 15.2401C16.9596 14.4171 19.1841 14.0057 21.6069 14.0057Z" fill="black"/>
<path d="M59.354 41.8785C61.2042 41.8785 62.834 41.6186 64.2437 41.0989C65.6973 40.5358 67.0409 39.6695 68.2743 38.5L73.7586 44.3475C70.4108 48.1158 65.5211 50 59.0897 50C55.0811 50 51.535 49.242 48.4514 47.726C45.3679 46.1667 42.9891 44.0226 41.3152 41.2938C39.6413 38.565 38.8043 35.468 38.8043 32.0028C38.8043 28.581 39.6192 25.5057 41.2491 22.7768C42.9231 20.0047 45.1917 17.8606 48.055 16.3446C50.9623 14.7853 54.2221 14.0057 57.8343 14.0057C61.2262 14.0057 64.3097 14.7203 67.0849 16.1497C69.8601 17.5358 72.0627 19.5716 73.6926 22.2571C75.3665 24.8992 76.2035 28.0395 76.2035 31.678L49.9051 36.6808C50.654 38.4134 51.8213 39.7128 53.4072 40.5791C55.037 41.4454 57.0193 41.8785 59.354 41.8785ZM57.8343 21.6723C55.2353 21.6723 53.1208 22.4953 51.4909 24.1412C49.8611 25.7872 49.0021 28.0612 48.914 30.9633L66.2259 27.6497C65.7414 25.8305 64.7502 24.3795 63.2525 23.2966C61.7548 22.2137 59.9487 21.6723 57.8343 21.6723Z" fill="black"/>
<path d="M114.32 14.5254V49.4802H104.541V45.322C103.175 46.838 101.545 48.0075 99.6512 48.8305C97.757 49.6102 95.7087 50 93.5061 50C88.8368 50 85.1365 48.6789 82.4053 46.0367C79.6742 43.3945 78.3086 39.4746 78.3086 34.2768V14.5254H88.6165V32.7825C88.6165 38.4134 91.0173 41.2288 95.8188 41.2288C98.2857 41.2288 100.268 40.4492 101.766 38.8898C103.263 37.2872 104.012 34.9266 104.012 31.8079V14.5254H114.32Z" fill="black"/>
<path d="M140.653 47.791C139.64 48.5273 138.384 49.0904 136.887 49.4802C135.433 49.8267 133.913 50 132.327 50C128.055 50 124.773 48.9388 122.482 46.8164C120.191 44.694 119.046 41.5753 119.046 37.4605V6.79379H129.354V15.3051H138.142V23.1017H129.354V37.3305C129.354 38.8032 129.728 39.951 130.477 40.774C131.226 41.5537 132.305 41.9435 133.715 41.9435C135.301 41.9435 136.711 41.5104 137.944 40.6441L140.653 47.791Z" fill="black"/>
<path d="M151.695 19.1384C152.928 17.4492 154.58 16.1714 156.651 15.3051C158.765 14.4388 161.188 14.0057 163.919 14.0057V23.3616C162.774 23.275 162.003 23.2316 161.606 23.2316C158.655 23.2316 156.342 24.0546 154.668 25.7006C152.995 27.3032 152.158 29.7288 152.158 32.9774V49.4802H141.85V14.5254H151.695V19.1384Z" fill="black"/>
<path d="M182.016 50C178.271 50 174.902 49.242 171.906 47.726C168.955 46.1667 166.642 44.0226 164.968 41.2938C163.294 38.565 162.457 35.468 162.457 32.0028C162.457 28.5377 163.294 25.4407 164.968 22.7119C166.642 19.9831 168.955 17.8606 171.906 16.3446C174.902 14.7853 178.271 14.0057 182.016 14.0057C185.76 14.0057 189.108 14.7853 192.059 16.3446C195.011 17.8606 197.323 19.9831 198.997 22.7119C200.671 25.4407 201.508 28.5377 201.508 32.0028C201.508 35.468 200.671 38.565 198.997 41.2938C197.323 44.0226 195.011 46.1667 192.059 47.726C189.108 49.242 185.76 50 182.016 50ZM182.016 41.6836C184.659 41.6836 186.817 40.8173 188.491 39.0847C190.209 37.3089 191.068 34.9482 191.068 32.0028C191.068 29.0574 190.209 26.7185 188.491 24.9859C186.817 23.21 184.659 22.322 182.016 22.322C179.373 22.322 177.192 23.21 175.474 24.9859C173.756 26.7185 172.897 29.0574 172.897 32.0028C172.897 34.9482 173.756 37.3089 175.474 39.0847C177.192 40.8173 179.373 41.6836 182.016 41.6836Z" fill="black"/>
<path d="M225.38 14.0057C229.785 14.0057 233.331 15.3051 236.018 17.904C238.749 20.5028 240.115 24.3578 240.115 29.4689V49.4802H229.807V31.0283C229.807 28.2561 229.19 26.1987 227.957 24.8559C226.723 23.4699 224.939 22.7768 222.605 22.7768C220.006 22.7768 217.935 23.5782 216.393 25.1808C214.852 26.7401 214.081 29.0791 214.081 32.1977V49.4802H203.773V14.5254H213.618V18.6186C214.984 17.146 216.68 16.0198 218.706 15.2401C220.732 14.4171 222.957 14.0057 225.38 14.0057Z" fill="black"/>
<path d="M243.512 4H255.802L253.753 33.6921H245.56L243.512 4ZM249.657 50C247.851 50 246.331 49.4369 245.097 48.3107C243.908 47.1412 243.313 45.7335 243.313 44.0876C243.313 42.4416 243.908 41.0772 245.097 39.9944C246.287 38.8682 247.807 38.3051 249.657 38.3051C251.507 38.3051 253.027 38.8682 254.216 39.9944C255.405 41.0772 256 42.4416 256 44.0876C256 45.7335 255.383 47.1412 254.15 48.3107C252.96 49.4369 251.463 50 249.657 50Z" fill="black"/>
<rect x="272" width="53" height="53" rx="10" fill="#5353EC" fill-opacity="0.1"/>
<path d="M300.688 15.6V38H295.664V35.28C294.128 37.3493 291.867 38.384 288.88 38.384C286.235 38.384 284.165 37.552 282.672 35.888C281.2 34.2026 280.464 31.8133 280.464 28.72V15.6H285.648V28.56C285.648 30.352 286.064 31.7066 286.896 32.624C287.749 33.52 288.901 33.968 290.352 33.968C291.909 33.968 293.157 33.488 294.096 32.528C295.035 31.5466 295.504 30.1066 295.504 28.208V15.6H300.688Z" fill="#5353EC"/>
<path d="M313.68 19.76V33.84H317.552V38H304.592V33.84H308.496V19.76H304.592V15.6H317.552V19.76H313.68Z" fill="#5353EC"/>
</svg>
